<svg width="205" height="47" viewBox="0 0 205 47" fill="none" xmlns="http://www.w3.org/2000/svg">
<path d="M11.2 38.86C9.14667 38.86 7.17333 38.5533 5.28 37.94C3.41333 37.3 1.92 36.46 0.8 35.42L2.44 31.78C3.48 32.7133 4.78667 33.4733 6.36 34.06C7.93333 34.6467 9.54667 34.94 11.2 34.94C13.2533 34.94 14.7867 34.58 15.8 33.86C16.8133 33.14 17.32 32.1933 17.32 31.02C17.32 30.14 17.0267 29.42 16.44 28.86C15.88 28.3 15.1733 27.8733 14.32 27.58C13.4667 27.2867 12.28 26.94 10.76 26.54C8.76 26.0333 7.13333 25.5267 5.88 25.02C4.65333 24.5133 3.6 23.7267 2.72 22.66C1.84 21.5933 1.4 20.1533 1.4 18.34C1.4 16.82 1.78667 15.4467 2.56 14.22C3.33333 12.9667 4.50667 11.98 6.08 11.26C7.68 10.5133 9.62667 10.14 11.92 10.14C13.5467 10.14 15.1333 10.3667 16.68 10.82C18.2267 11.2467 19.5733 11.86 20.72 12.66L19.24 16.3C18.0933 15.5533 16.88 14.9933 15.6 14.62C14.3467 14.22 13.1067 14.02 11.88 14.02C9.88 14.02 8.38667 14.4067 7.4 15.18C6.41333 15.9533 5.92 16.94 5.92 18.14C5.92 19.02 6.2 19.74 6.76 20.3C7.34667 20.86 8.06667 21.2867 8.92 21.58C9.77333 21.8733 10.96 22.22 12.48 22.62C14.4533 23.1 16.0667 23.5933 17.32 24.1C18.5733 24.6067 19.64 25.3933 20.52 26.46C21.4 27.5 21.84 28.9133 21.84 30.7C21.84 32.22 21.44 33.5933 20.64 34.82C19.8667 36.0467 18.68 37.0333 17.08 37.78C15.48 38.5 13.52 38.86 11.2 38.86ZM34.4055 38.74C32.3521 38.74 30.5121 38.2733 28.8855 37.34C27.2588 36.4067 25.9788 35.1133 25.0455 33.46C24.1121 31.8067 23.6455 29.94 23.6455 27.86C23.6455 25.7533 24.1121 23.8733 25.0455 22.22C25.9788 20.5667 27.2588 19.2733 28.8855 18.34C30.5121 17.4067 32.3521 16.94 34.4055 16.94C36.4588 16.94 38.2988 17.4067 39.9255 18.34C41.5521 19.2733 42.8188 20.5667 43.7255 22.22C44.6588 23.8733 45.1255 25.7533 45.1255 27.86C45.1255 29.94 44.6588 31.8067 43.7255 33.46C42.8188 35.1133 41.5521 36.4067 39.9255 37.34C38.2988 38.2733 36.4588 38.74 34.4055 38.74ZM34.4055 34.9C35.6055 34.9 36.6721 34.6067 37.6055 34.02C38.5655 33.4333 39.3121 32.6067 39.8455 31.54C40.4055 30.4733 40.6855 29.2467 40.6855 27.86C40.6855 25.7267 40.0988 24.02 38.9255 22.74C37.7521 21.46 36.2455 20.82 34.4055 20.82C33.2055 20.82 32.1255 21.1133 31.1655 21.7C30.2321 22.26 29.4855 23.0733 28.9255 24.14C28.3921 25.2067 28.1255 26.4467 28.1255 27.86C28.1255 29.2467 28.3921 30.4733 28.9255 31.54C29.4855 32.6067 30.2455 33.4333 31.2055 34.02C32.1655 34.6067 33.2321 34.9 34.4055 34.9ZM60.1602 16.94C62.6668 16.94 64.6802 17.7267 66.2002 19.3C67.7202 20.8733 68.4802 23.18 68.4802 26.22V38.5H64.0802V26.9C64.0802 24.9533 63.6535 23.4867 62.8002 22.5C61.9468 21.5133 60.7068 21.02 59.0802 21.02C57.2668 21.02 55.8268 21.5933 54.7602 22.74C53.7202 23.8867 53.2002 25.5267 53.2002 27.66V38.5H48.7602V17.22H53.0002V20.54C53.7468 19.3933 54.7335 18.5133 55.9602 17.9C57.2135 17.26 58.6135 16.94 60.1602 16.94ZM93.7356 35.42C93.7356 42.8067 90.1356 46.5 82.9356 46.5C81.0156 46.5 79.2023 46.2333 77.4956 45.7C75.789 45.1667 74.389 44.3933 73.2956 43.38L75.1356 40.02C76.0423 40.8467 77.1623 41.5 78.4956 41.98C79.829 42.46 81.2023 42.7 82.6156 42.7C84.909 42.7 86.589 42.14 87.6556 41.02C88.749 39.9267 89.2956 38.2467 89.2956 35.98V33.98C88.549 35.1267 87.549 36.02 86.2956 36.66C85.069 37.2733 83.6956 37.58 82.1756 37.58C80.2823 37.58 78.5623 37.1533 77.0156 36.3C75.4956 35.42 74.2823 34.1933 73.3756 32.62C72.4956 31.0467 72.0556 29.26 72.0556 27.26C72.0556 25.26 72.4956 23.4733 73.3756 21.9C74.2823 20.3267 75.4956 19.1133 77.0156 18.26C78.5623 17.38 80.2823 16.94 82.1756 16.94C83.7756 16.94 85.2023 17.2733 86.4556 17.94C87.7356 18.6067 88.7623 19.5667 89.5356 20.82V17.22H93.7356V35.42ZM82.9356 33.7C84.8023 33.7 86.3356 33.1 87.5356 31.9C88.7623 30.7 89.3756 29.1533 89.3756 27.26C89.3756 25.3667 88.7623 23.82 87.5356 22.62C86.3356 21.42 84.8023 20.82 82.9356 20.82C81.069 20.82 79.5356 21.42 78.3356 22.62C77.1356 23.82 76.5356 25.3667 76.5356 27.26C76.5356 29.1533 77.1356 30.7 78.3356 31.9C79.5356 33.1 81.069 33.7 82.9356 33.7ZM111.299 37.34C110.179 38.2733 108.646 38.74 106.699 38.74C104.539 38.74 102.872 38.1533 101.699 36.98C100.526 35.78 99.9391 34.06 99.9391 31.82V21.18H96.6191V17.54H99.9391V12.54H104.339V17.54H109.899V21.18H104.339V31.7C104.339 32.7667 104.592 33.5933 105.099 34.18C105.632 34.74 106.366 35.02 107.299 35.02C107.806 35.02 108.286 34.94 108.739 34.78C109.219 34.5933 109.632 34.3533 109.979 34.06L111.299 37.34ZM121.363 16.94C124.269 16.94 126.496 17.6867 128.043 19.18C129.589 20.6733 130.363 22.8867 130.363 25.82V38.5H126.243V35.38C125.656 36.4733 124.803 37.3133 123.683 37.9C122.563 38.46 121.216 38.74 119.643 38.74C117.349 38.74 115.536 38.1667 114.203 37.02C112.869 35.8467 112.203 34.3267 112.203 32.46C112.203 30.5667 112.869 29.06 114.203 27.94C115.536 26.7933 117.616 26.22 120.443 26.22H125.963C125.963 25.34 125.856 24.6333 125.643 24.1C125.189 21.8333 123.589 20.7 120.843 20.7C119.643 20.7 118.483 20.9 117.363 21.3C116.269 21.7 115.323 22.26 114.523 22.98L112.883 19.7C113.923 18.82 115.189 18.14 116.683 17.66C118.203 17.18 119.763 16.94 121.363 16.94ZM120.683 35.54C121.963 35.54 123.056 35.2333 123.963 34.62C124.869 34.0067 125.536 33.1133 125.963 31.94V29.06H120.883C117.949 29.06 116.483 30.1133 116.483 32.22C116.483 33.2333 116.856 34.0467 117.603 34.66C118.349 35.2467 119.376 35.54 120.683 35.54ZM146.223 16.94C148.729 16.94 150.743 17.7267 152.263 19.3C153.783 20.8733 154.543 23.18 154.543 26.22V38.5H150.143V26.9C150.143 24.9533 149.716 23.4867 148.863 22.5C148.009 21.5133 146.769 21.02 145.143 21.02C143.329 21.02 141.889 21.5933 140.823 22.74C139.783 23.8867 139.263 25.5267 139.263 27.66V38.5H134.823V17.22H139.063V20.54C139.809 19.3933 140.796 18.5133 142.023 17.9C143.276 17.26 144.676 16.94 146.223 16.94ZM179.798 35.42C179.798 42.8067 176.198 46.5 168.998 46.5C167.078 46.5 165.265 46.2333 163.558 45.7C161.851 45.1667 160.451 44.3933 159.358 43.38L161.198 40.02C162.105 40.8467 163.225 41.5 164.558 41.98C165.891 42.46 167.265 42.7 168.678 42.7C170.971 42.7 172.651 42.14 173.718 41.02C174.811 39.9267 175.358 38.2467 175.358 35.98V33.98C174.611 35.1267 173.611 36.02 172.358 36.66C171.131 37.2733 169.758 37.58 168.238 37.58C166.345 37.58 164.625 37.1533 163.078 36.3C161.558 35.42 160.345 34.1933 159.438 32.62C158.558 31.0467 158.118 29.26 158.118 27.26C158.118 25.26 158.558 23.4733 159.438 21.9C160.345 20.3267 161.558 19.1133 163.078 18.26C164.625 17.38 166.345 16.94 168.238 16.94C169.838 16.94 171.265 17.2733 172.518 17.94C173.798 18.6067 174.825 19.5667 175.598 20.82V17.22H179.798V35.42ZM168.998 33.7C170.865 33.7 172.398 33.1 173.598 31.9C174.825 30.7 175.438 29.1533 175.438 27.26C175.438 25.3667 174.825 23.82 173.598 22.62C172.398 21.42 170.865 20.82 168.998 20.82C167.131 20.82 165.598 21.42 164.398 22.62C163.198 23.82 162.598 25.3667 162.598 27.26C162.598 29.1533 163.198 30.7 164.398 31.9C165.598 33.1 167.131 33.7 168.998 33.7Z" fill="white"/>
<path d="M193.277 0.5H197.077L196.317 10.38L197.077 19.5H193.277L194.037 10.38L193.277 0.5Z" fill="#F03E3E"/>
<path d="M187.9 16.3955L186 13.1046L194.936 8.82275L202.455 3.60457L204.355 6.89547L196.076 10.7973L187.9 16.3955Z" fill="#F03E3E"/>
<path d="M204.354 13.1045L202.454 16.3954L194.278 10.7973L186 6.89543L187.9 3.60454L195.418 8.82272L204.354 13.1045Z" fill="#F03E3E"/>
</svg>
