<svg width="16" height="16" viewBox="0 0 16 16" fill="none" xmlns="http://www.w3.org/2000/svg">
<path d="M5.83398 11.6056C5.48558 11.6056 5.18732 11.4816 4.93922 11.2335C4.69111 10.9854 4.56706 10.6871 4.56706 10.3387V2.73714C4.56706 2.38874 4.69111 2.09048 4.93922 1.84237C5.18732 1.59427 5.48558 1.47021 5.83398 1.47021H11.5352C11.8836 1.47021 12.1818 1.59427 12.4299 1.84237C12.678 2.09048 12.8021 2.38874 12.8021 2.73714V10.3387C12.8021 10.6871 12.678 10.9854 12.4299 11.2335C12.1818 11.4816 11.8836 11.6056 11.5352 11.6056H5.83398ZM5.83398 10.3387H11.5352V2.73714H5.83398V10.3387ZM3.30013 14.1395C2.95173 14.1395 2.65347 14.0154 2.40536 13.7673C2.15726 13.5192 2.0332 13.221 2.0332 12.8726V4.00407H3.30013V12.8726H10.2682V14.1395H3.30013Z" fill="#B0B0B0"/>
</svg>
